<svg xmlns="http://www.w3.org/2000/svg" viewBox="0 0 132.09 40"><defs><style>.cls-1{fill:#74ebd5;}.cls-2{fill:#fff;}</style></defs><g id="Layer_2" data-name="Layer 2"><g id="Layer_1-2" data-name="Layer 1"><path class="cls-1" d="M.21,21.16A2,2,0,0,1,2.14,20H8v-.52C8,13.86,8,8.23,8,2.59A2.35,2.35,0,0,1,9.61,0h.78c1.92,1.07,3.85,2.1,5.73,3.22a1.43,1.43,0,0,0,1.76,0c1.56-1,3.19-1.85,4.79-2.76.3-.17.62-.32.93-.47h.78l5.26,2.93c.37.21.73.4,1.08.63a.48.48,0,0,0,.57,0l5.27-3c.34-.19.69-.35,1-.53h.78A2.12,2.12,0,0,1,40,1.68a3,3,0,0,1,0,.43V34a6,6,0,0,1-6,6H6A6,6,0,0,1,.08,34.83.9.9,0,0,0,0,34.62v-13C.07,21.48.13,21.32.21,21.16ZM12.1,36H33.67a2.06,2.06,0,0,0,2.23-1.44,3.16,3.16,0,0,0,.11-.81v-28c0-.07,0-.15,0-.28l-.36.18c-1.12.64-2.25,1.26-3.36,1.92a2.35,2.35,0,0,1-2.57,0c-1.79-1-3.61-2.07-5.41-3.12a.53.53,0,0,0-.6,0c-1.81,1-3.63,2.07-5.44,3.13a2.29,2.29,0,0,1-2.5,0C14.67,7,13.57,6.36,12.47,5.73L12,5.49V32.24A10.56,10.56,0,0,1,11.65,36ZM4,33.8A2,2,0,0,0,5.84,36,2,2,0,0,0,8,34.3a4.89,4.89,0,0,0,0-.54V24H4a2.58,2.58,0,0,0,0,.29C4,27.48,4,30.64,4,33.8Z"/><path class="cls-1" d="M18.26,28H29.75a3.68,3.68,0,0,1,.66.06,2,2,0,0,1-.6,3.95H18.36a5.83,5.83,0,0,1-.59,0,2,2,0,0,1-1.68-2.5A2,2,0,0,1,18.26,28Z"/><path class="cls-1" d="M29.82,24c-1.94,0-3.88,0-5.82,0-.78,0-1.57,0-2.35,0-1.26,0-2.52,0-3.79,0A2,2,0,0,1,16,22a2,2,0,0,1,2.11-2c3.91,0,7.81,0,11.72,0h.35a2,2,0,0,1-.38,4Z"/><path class="cls-1" d="M26.06,16c-1.37,0-2.73,0-4.1,0A2,2,0,0,1,22,12H26a2,2,0,0,1,.09,4Z"/><path class="cls-2" d="M50.74,29.26V9.7h5.1a15.1,15.1,0,0,1,2.38.19,5.59,5.59,0,0,1,2,.74,3.68,3.68,0,0,1,1.36,1.55,6,6,0,0,1,.5,2.64,5.07,5.07,0,0,1-.35,2,3.23,3.23,0,0,1-1,1.29,3.64,3.64,0,0,1-1.54.66,3.83,3.83,0,0,1,1.91.73,3.61,3.61,0,0,1,1.17,1.58,6.33,6.33,0,0,1,.4,2.39,7.56,7.56,0,0,1-.4,2.62,4.45,4.45,0,0,1-1.14,1.8,4.6,4.6,0,0,1-1.85,1,8.44,8.44,0,0,1-2.52.34Zm4.32-11.74h.85a3,3,0,0,0,1.5-.3,1.53,1.53,0,0,0,.69-.88,4.76,4.76,0,0,0,.18-1.4A2.8,2.8,0,0,0,58,13.65a1.84,1.84,0,0,0-.82-.79,3.22,3.22,0,0,0-1.37-.26h-.75Zm0,8.72H56a2.33,2.33,0,0,0,2-.72,3.54,3.54,0,0,0,.54-2.13,5.21,5.21,0,0,0-.24-1.76,1.67,1.67,0,0,0-.79-.95,3,3,0,0,0-1.5-.31h-.9Z"/><path class="cls-2" d="M70.54,29.55a6.73,6.73,0,0,1-3.47-.77,4.33,4.33,0,0,1-1.84-2.22,9.7,9.7,0,0,1-.55-3.46V15.83a9.53,9.53,0,0,1,.55-3.45,4.21,4.21,0,0,1,1.84-2.18,6.73,6.73,0,0,1,3.47-.77,6.91,6.91,0,0,1,3.52.77,4.21,4.21,0,0,1,1.84,2.18,9.52,9.52,0,0,1,.56,3.45V23.1a9.69,9.69,0,0,1-.56,3.46,4.33,4.33,0,0,1-1.84,2.22A6.91,6.91,0,0,1,70.54,29.55Zm0-3.07a1.28,1.28,0,0,0,1-.34,1.61,1.61,0,0,0,.41-.86,5.67,5.67,0,0,0,.1-1.09V14.77a5.63,5.63,0,0,0-.1-1.1,1.62,1.62,0,0,0-.41-.85,1.28,1.28,0,0,0-1-.34,1.2,1.2,0,0,0-.94.34,1.7,1.7,0,0,0-.41.85,6.52,6.52,0,0,0-.1,1.1v9.42a6.59,6.59,0,0,0,.09,1.09,1.59,1.59,0,0,0,.39.86A1.22,1.22,0,0,0,70.54,26.48Z"/><path class="cls-2" d="M79.09,29.26V9.7h4.32V26.34h4.5v2.92Z"/><path class="cls-2" d="M89.79,29.26V9.7h8.79v3H94.11V17.5h3.41v3H94.11v5.85h4.52v2.92Z"/><path class="cls-2" d="M102.35,29.26V12.91H99.4V9.7h10.21v3.21h-2.92V29.26Z"/><path class="cls-2" d="M109.52,29.26,113.21,9.7h4.93l3.64,19.56h-4l-.65-4.13h-2.88l-.67,4.13Zm5.14-6.71h2.08l-1-7.63Z"/><path class="cls-2" d="M123,29.26V26.65l4.78-14h-4.57V9.7h8.82v2.44l-4.86,14.2h4.9v2.92Z"/></g></g></svg>